<svg width="134" height="56" viewBox="0 0 134 56" fill="none" xmlns="http://www.w3.org/2000/svg">
<path d="M38.4406 12.6183L43.3826 17.5579L38.4406 12.6183ZM41.6186 8.2666L28.2556 21.6296C27.5652 22.3191 27.0943 23.1976 26.9023 24.1543L25.668 30.3329L31.8466 29.0963C32.8033 28.9049 33.6806 28.4359 34.3713 27.7453L47.7343 14.3823C48.1359 13.9807 48.4544 13.504 48.6717 12.9793C48.889 12.4547 49.0009 11.8923 49.0009 11.3244C49.0009 10.7565 48.889 10.1942 48.6717 9.66954C48.4544 9.14488 48.1359 8.66816 47.7343 8.2666C47.3327 7.86504 46.856 7.5465 46.3314 7.32918C45.8067 7.11185 45.2444 7 44.6765 7C44.1086 7 43.5462 7.11185 43.0216 7.32918C42.4969 7.5465 42.0202 7.86504 41.6186 8.2666V8.2666Z" stroke="#555770" stroke-width="4" stroke-linecap="round" stroke-linejoin="round"/>
<path d="M44.334 34.9998V41.9998C44.334 43.2375 43.8423 44.4245 42.9671 45.2997C42.092 46.1748 40.905 46.6665 39.6673 46.6665H14.0007C12.763 46.6665 11.576 46.1748 10.7008 45.2997C9.82565 44.4245 9.33398 43.2375 9.33398 41.9998V16.3332C9.33398 15.0955 9.82565 13.9085 10.7008 13.0333C11.576 12.1582 12.763 11.6665 14.0007 11.6665H21.0006" stroke="#555770" stroke-width="4" stroke-linecap="round" stroke-linejoin="round"/>
<path d="M72.5141 40H88.6931V36.245H76.9935V29.4957H87.7634V25.7408H76.9935V19.0277H88.5965V15.2727H72.5141V40ZM99.8554 40.326C103.043 40.326 104.48 38.4304 105.168 37.0781H105.434V40H109.732V15.2727H105.349V24.5213H105.168C104.504 23.1811 103.139 21.2131 99.8675 21.2131C95.5812 21.2131 92.2126 24.5696 92.2126 30.7514C92.2126 36.8608 95.4846 40.326 99.8554 40.326ZM101.075 36.7401C98.1892 36.7401 96.6679 34.2045 96.6679 30.7273C96.6679 27.2741 98.165 24.799 101.075 24.799C103.888 24.799 105.434 27.1293 105.434 30.7273C105.434 34.3253 103.864 36.7401 101.075 36.7401ZM114.389 40H118.76V21.4545H114.389V40ZM116.587 18.8224C117.975 18.8224 119.11 17.7599 119.11 16.456C119.11 15.1399 117.975 14.0774 116.587 14.0774C115.186 14.0774 114.051 15.1399 114.051 16.456C114.051 17.7599 115.186 18.8224 116.587 18.8224ZM132.515 21.4545H128.857V17.0114H124.486V21.4545H121.854V24.8352H124.486V35.1463C124.462 38.6357 126.997 40.3501 130.282 40.2536C131.525 40.2173 132.382 39.9759 132.853 39.8189L132.117 36.402C131.875 36.4624 131.38 36.571 130.837 36.571C129.738 36.571 128.857 36.1847 128.857 34.4219V24.8352H132.515V21.4545Z" fill="#555770"/>
</svg>
